<svg width="4244" height="1660" viewBox="0 0 4244 1660" fill="none" xmlns="http://www.w3.org/2000/svg">
<path d="M3765.27 1594.65H3746V1404H3765.27V1594.65Z" fill="white"/>
<path d="M3973.94 318.183V1594.59C3973.94 1605.42 3969.58 1615.28 3962.39 1622.37C3955.32 1629.74 3945.18 1634.25 3934.19 1634.25H3365.8C3354.81 1634.25 3344.67 1629.74 3337.57 1622.37C3330.41 1615.28 3326.05 1605.42 3326.05 1594.59V1527.47C3326.05 1522.25 3325.92 1517.04 3325.5 1511.98C3323.82 1487.94 3318.06 1464.72 3308.9 1443.39C3308.34 1441.94 3307.69 1440.55 3307.08 1439.16C3301.04 1425.82 3293.75 1413.18 3285.34 1401.5C3249.2 1351.62 3192.07 1318.06 3126.65 1315.76C3082.8 1314.23 3041.94 1326.32 3007.84 1348.14C2973.64 1370.03 2946.28 1401.64 2929.73 1439.16C2929.12 1440.55 2928.47 1441.94 2928 1443.39C2923.55 1453.88 2920.06 1464.87 2917.52 1476.19C2917.52 1476.32 2917.43 1476.4 2917.43 1476.54C2916.73 1479.32 2916.2 1482.09 2915.7 1484.95C2915.06 1488.48 2914.53 1492.03 2914.02 1495.64C2913.27 1500.99 2912.77 1506.48 2912.49 1511.98C2912.37 1515.51 2912.21 1518.99 2912.21 1522.53V1594.59C2912.21 1616.47 2894.43 1634.25 2872.49 1634.25H1617.47C1595.59 1634.25 1577.81 1616.47 1577.81 1594.59V1527.47C1577.81 1518.57 1577.25 1509.82 1576.14 1501.2C1563.83 1400.8 1481.71 1319.44 1378.54 1315.76C1268.13 1311.87 1176.07 1394.55 1165.1 1501.2C1164.4 1508.21 1164.05 1515.31 1164.05 1522.53V1585.48C1164.05 1606.73 1147.51 1630.51 1127.58 1634.25H1074.5C1052.54 1634.25 1034.75 1616.47 1034.75 1594.59V1527.53C1034.75 1524.05 1034.69 1520.52 1034.47 1517.04C1034.41 1514.47 1034.2 1511.83 1033.99 1509.26C1033.92 1508.08 1033.78 1506.98 1033.65 1505.79C1033.37 1502.93 1033.02 1500.16 1032.68 1497.31C1032.59 1497.03 1032.59 1496.75 1032.53 1496.48C1032.05 1493.07 1031.42 1489.74 1030.79 1486.4C1012.59 1392.88 933.595 1319.31 835.488 1315.76C717.857 1311.59 621.071 1405.8 621.071 1522.53V1585.55C621.071 1610.63 598.006 1629.45 573.34 1624.32L73.2285 1540.04C45.0182 1535.32 24.3118 1510.86 24.3118 1482.23V324.443C24.3118 239.119 93.4457 169.977 178.697 169.977H3825.67C3907.59 169.977 3973.94 236.268 3973.94 318.183Z" fill="#FFB640"/>
<path d="M3119.25 1312.29C3121.74 1312.29 3124.26 1312.34 3126.77 1312.42C3190.79 1314.66 3249.58 1346.41 3288.04 1399.53C3296.54 1411.36 3303.98 1424.22 3310.13 1437.77C3310.77 1439.24 3311.42 1440.68 3312.01 1442.2C3321.49 1464.22 3327.14 1487.66 3328.84 1511.73C3329.21 1516.34 3329.4 1521.5 3329.4 1527.46V1594.58C3329.4 1604.24 3333.15 1613.26 3339.95 1620C3346.63 1626.96 3356.06 1630.92 3365.82 1630.92H3934.21C3943.97 1630.92 3953.37 1626.96 3960.03 1620.05C3966.88 1613.26 3970.63 1604.24 3970.63 1594.58V318.171C3970.63 238.294 3905.6 173.297 3825.7 173.297H178.699C95.4072 173.297 27.6488 241.091 27.6488 324.408V1482.24C27.6488 1509.34 47.0475 1532.26 73.7822 1536.74L573.897 1621.03C584.78 1623.29 595.833 1620.61 604.343 1613.69C612.86 1606.77 617.743 1596.5 617.743 1585.54V1522.53C617.743 1464.98 640.568 1411.26 682.014 1371.26C723.434 1331.28 777.986 1310.33 835.612 1312.42C933.279 1315.96 1014.89 1387.24 1034.07 1485.76C1034.73 1489.33 1035.36 1492.64 1035.84 1496.01L1036.12 1497.98C1036.41 1500.48 1036.72 1502.94 1036.96 1505.46C1037.13 1506.85 1037.25 1507.93 1037.32 1509.06C1037.53 1511.61 1037.75 1514.32 1037.81 1516.94C1038.01 1520.38 1038.09 1524 1038.09 1527.53V1594.58C1038.09 1614.61 1054.43 1630.92 1074.51 1630.92H1127.59C1144.64 1627.65 1160.72 1605.97 1160.72 1585.48V1522.53C1160.72 1515.26 1161.08 1507.97 1161.79 1500.86C1173.07 1391.3 1268.28 1308.44 1378.67 1312.42C1480.43 1316.05 1566.75 1397.04 1579.45 1500.78C1580.57 1509.49 1581.15 1518.46 1581.15 1527.46V1594.58C1581.15 1614.61 1597.45 1630.92 1617.48 1630.92H2872.49C2892.57 1630.92 2908.9 1614.61 2908.9 1594.58V1522.53C2908.9 1518.94 2909.04 1515.42 2909.18 1511.84C2909.49 1505.93 2909.99 1500.33 2910.75 1495.17C2911.22 1491.54 2911.78 1487.94 2912.42 1484.36C2912.9 1481.58 2913.43 1478.85 2914.1 1476.13L2914.27 1475.45C2916.9 1463.78 2920.51 1452.56 2924.93 1442.09C2925.37 1440.77 2926.02 1439.28 2926.72 1437.78C2943.44 1399.82 2970.88 1367.85 3006.03 1345.33C3039.93 1323.65 3078.95 1312.29 3119.25 1312.29ZM3934.21 1637.58H3365.82C3354.24 1637.58 3343.08 1632.88 3335.19 1624.68C3327.16 1616.74 3322.72 1606.02 3322.72 1594.58V1527.46C3322.72 1521.69 3322.55 1516.7 3322.19 1512.24C3320.56 1488.88 3315.05 1466.17 3305.82 1444.7C3305.24 1443.18 3304.65 1441.85 3304.03 1440.52C3298.11 1427.37 3290.89 1414.89 3282.64 1403.44C3245.39 1352.01 3188.47 1321.26 3126.55 1319.09C3084.93 1317.65 3044.49 1328.65 3009.64 1350.94C2975.58 1372.74 2949.01 1403.72 2932.79 1440.49C2932.2 1441.81 2931.61 1443.09 2931.16 1444.44C2926.83 1454.69 2923.39 1465.41 2920.84 1476.56L2920.68 1477.34C2920 1480.04 2919.47 1482.73 2919 1485.5C2918.38 1489.01 2917.82 1492.52 2917.35 1496.08C2916.62 1501.08 2916.14 1506.46 2915.84 1512.13C2915.7 1515.6 2915.59 1519.04 2915.59 1522.53V1594.58C2915.59 1618.29 2896.23 1637.58 2872.49 1637.58H1617.48C1593.77 1637.58 1574.48 1618.29 1574.48 1594.58V1527.46C1574.48 1518.76 1573.92 1510.06 1572.84 1501.62C1560.52 1401.06 1476.95 1322.6 1378.43 1319.09C1271.44 1315.21 1179.33 1395.46 1168.41 1501.54C1167.73 1508.41 1167.39 1515.48 1167.39 1522.53V1585.48C1167.39 1609.28 1149.08 1633.6 1128.2 1637.53L1074.51 1637.58C1050.75 1637.58 1031.43 1618.29 1031.43 1594.58V1527.53C1031.43 1524.12 1031.36 1520.65 1031.16 1517.24C1031.08 1514.61 1030.88 1512.04 1030.67 1509.53C1030.61 1508.45 1030.49 1507.5 1030.37 1506.52C1030.09 1503.64 1029.79 1501.24 1029.49 1498.78L1029.24 1496.94C1028.77 1493.66 1028.16 1490.46 1027.56 1487.25C1008.95 1391.57 929.92 1322.5 835.374 1319.09C779.572 1317.1 726.751 1337.34 686.642 1376.05C646.511 1414.78 624.41 1466.81 624.41 1522.53V1585.54C624.41 1598.52 618.629 1610.66 608.55 1618.86C598.467 1627.05 585.373 1630.24 572.664 1627.57L72.6747 1543.33C42.7236 1538.3 20.9812 1512.61 20.9812 1482.24V324.408C20.9812 237.428 91.7322 166.64 178.699 166.64H3825.7C3909.29 166.64 3977.28 234.603 3977.28 318.171V1594.58C3977.28 1606.02 3972.84 1616.74 3964.75 1624.73C3956.95 1632.88 3945.76 1637.58 3934.21 1637.58Z" fill="#6B184E"/>
<path d="M3973.91 1230.73V1421.39H3308.85C3308.29 1419.93 3307.67 1418.55 3307.06 1417.16C3301 1403.81 3293.7 1391.17 3285.29 1379.49C3249.18 1329.61 3192.06 1296.05 3126.6 1293.76C3082.78 1292.23 3041.92 1304.32 3007.8 1326.13C2973.62 1348.03 2946.23 1379.64 2929.71 1417.16C2929.07 1418.55 2928.46 1419.93 2927.98 1421.39H1945.25C1921.7 1421.39 1899.53 1410.2 1885.42 1391.31L1766.34 1230.73L1719.52 1167.65C1705.47 1148.68 1683.32 1137.57 1659.76 1137.57H24.281V946.919H1755.72C1779.26 946.919 1801.42 958.025 1815.46 976.999L1934.62 1137.57L1981.38 1200.65C1995.49 1219.55 2017.65 1230.73 2041.2 1230.73H3973.91Z" fill="white"/>
<path d="M51.5151 297.062C64.087 238.411 116.339 194.292 178.698 194.292H3825.7C3885.54 194.292 3935.61 236.911 3947.14 293.366C3920.33 255.165 3875.96 230.16 3825.7 230.16H178.687C125.932 230.16 79.3511 256.637 51.5151 297.062Z" fill="#FFDEA9"/>
<path d="M3878.19 1219.89H3973.91V318.196H3855.03C3826.88 318.196 3804.08 341.002 3804.08 369.145V1145.77C3804.08 1186.71 3837.25 1219.89 3878.19 1219.89Z" fill="#2CBEFF"/>
<path d="M3883.42 1196.74H3878.18C3850.08 1196.74 3827.24 1173.88 3827.24 1145.78V426.587H3863.12V1145.81C3863.12 1165.55 3870.84 1183.47 3883.42 1196.74Z" fill="#3F8CCA"/>
<path d="M2724.82 769.026H3055.23C3088.48 769.026 3115.45 742.082 3115.45 708.809V378.395C3115.45 345.145 3088.48 318.177 3055.23 318.177H2724.82C2691.54 318.177 2664.6 345.145 2664.6 378.395V708.809C2664.6 742.082 2691.54 769.026 2724.82 769.026Z" fill="#2CBEFF"/>
<path d="M2168.96 769.038H2499.38C2532.64 769.038 2559.6 742.079 2559.6 708.837V378.402C2559.6 345.141 2532.64 318.182 2499.38 318.182H2168.96C2135.7 318.182 2108.74 345.141 2108.74 378.402V708.837C2108.74 742.079 2135.7 769.038 2168.96 769.038Z" fill="#2CBEFF"/>
<path d="M1613.11 769.026H1943.55C1976.8 769.026 2003.76 742.08 2003.76 708.811V378.392C2003.76 345.141 1976.8 318.177 1943.55 318.177H1613.11C1579.86 318.177 1552.89 345.141 1552.89 378.392V708.811C1552.89 742.08 1579.86 769.026 1613.11 769.026Z" fill="#2CBEFF"/>
<path d="M1057.27 769.026H1387.68C1420.94 769.026 1447.91 742.08 1447.91 708.811V378.392C1447.91 345.141 1420.94 318.177 1387.68 318.177H1057.27C1024.02 318.177 997.055 345.141 997.055 378.392V708.811C997.055 742.08 1024.02 769.026 1057.27 769.026Z" fill="#2CBEFF"/>
<path d="M892.03 378.392V708.846C892.03 728.959 882.109 746.835 867.015 757.667C857.096 764.8 844.87 769.062 831.816 769.062H501.45C468.192 769.062 441.231 742.098 441.231 708.846V378.392C441.231 348.945 462.448 324.376 490.423 319.198C494.039 318.547 497.651 318.177 501.45 318.177H831.816C865.069 318.177 892.03 345.141 892.03 378.392Z" fill="#2CBEFF"/>
<path d="M811.052 769.065H662.827L499.871 540.513V429.911C499.871 406.983 512.679 387.057 531.53 376.879L811.052 769.065ZM441.229 458.256V378.397C441.229 378.345 441.229 378.276 441.23 378.207C441.229 378.276 441.229 378.345 441.229 378.397V458.256ZM441.23 378.138C441.23 378.104 441.23 378.086 441.23 378.035C441.23 378.086 441.23 378.104 441.23 378.138ZM441.23 377.966C441.23 377.914 441.23 377.897 441.23 377.845C441.23 377.879 441.23 377.914 441.23 377.966ZM441.232 377.759C441.232 377.724 441.232 377.707 441.234 377.672C441.232 377.707 441.232 377.724 441.232 377.759ZM441.236 377.586C441.236 377.552 441.236 377.517 441.236 377.5C441.236 377.517 441.236 377.552 441.236 377.586ZM441.237 377.379C441.237 377.362 441.237 377.345 441.237 377.327C441.237 377.345 441.237 377.362 441.237 377.379ZM441.241 377.207C441.241 377.189 441.243 377.172 441.243 377.155C441.243 377.189 441.241 377.189 441.241 377.207Z" fill="#8BDBFF"/>
<path d="M867.014 757.669L590.422 369.685H693.338L892.03 648.445V708.842C892.03 708.912 892.03 708.998 892.03 709.067C892.03 709.084 892.03 709.102 892.03 709.119C892.03 709.171 892.03 709.24 892.03 709.292C892.03 709.309 892.03 709.327 892.03 709.361C892.03 709.413 892.03 709.465 892.03 709.534C892.016 709.534 892.016 709.551 892.016 709.569C891.789 729.373 881.936 746.963 867.014 757.669Z" fill="#8BDBFF"/>
<path d="M1366.91 769.063H1218.67L1218.66 769.034H1366.88L1366.91 769.063Z" fill="#FFD796"/>
<path d="M1366.89 769.03H1218.66L1055.72 540.512V429.91C1055.72 406.983 1068.53 387.057 1087.37 376.878L1366.89 769.03ZM997.079 458.255V378.396C997.079 378.345 997.079 378.276 997.079 378.207C997.079 378.276 997.079 378.345 997.079 378.396V458.255ZM997.079 378.138C997.079 378.103 997.079 378.086 997.079 378.034C997.079 378.086 997.079 378.103 997.079 378.138ZM997.079 377.965C997.079 377.913 997.079 377.896 997.079 377.844C997.079 377.879 997.079 377.913 997.079 377.965ZM997.079 377.758C997.079 377.723 997.079 377.706 997.079 377.672C997.079 377.706 997.079 377.723 997.079 377.758ZM997.079 377.585C997.079 377.551 997.079 377.516 997.079 377.499C997.079 377.516 997.079 377.551 997.079 377.585ZM997.091 377.379C997.091 377.361 997.091 377.344 997.091 377.327C997.091 377.344 997.091 377.361 997.091 377.379ZM997.091 377.206C997.091 377.189 997.091 377.171 997.091 377.154C997.091 377.189 997.091 377.189 997.091 377.206Z" fill="#8BDBFF"/>
<path d="M1422.86 757.669L1146.27 369.685H1249.19L1447.87 648.445V708.842C1447.87 708.912 1447.87 708.998 1447.87 709.067C1447.87 709.084 1447.87 709.102 1447.87 709.119C1447.87 709.171 1447.87 709.24 1447.87 709.292C1447.87 709.309 1447.87 709.327 1447.87 709.361C1447.87 709.413 1447.87 709.465 1447.87 709.534C1447.87 709.534 1447.87 709.551 1447.87 709.569C1447.63 729.373 1437.77 746.963 1422.86 757.669Z" fill="#8BDBFF"/>
<path d="M1922.74 769.073H1774.52L1774.5 769.042H1922.73L1922.74 769.073Z" fill="#FFD796"/>
<path d="M1922.72 769.03H1774.5L1611.57 540.512V429.91C1611.57 406.983 1624.37 387.057 1643.23 376.878L1922.72 769.03ZM1552.91 458.255V378.396C1552.91 378.345 1552.91 378.276 1552.91 378.207C1552.91 378.276 1552.91 378.345 1552.91 378.396V458.255ZM1552.91 378.138C1552.91 378.103 1552.91 378.086 1552.93 378.034C1552.91 378.086 1552.91 378.103 1552.91 378.138ZM1552.93 377.965C1552.93 377.913 1552.93 377.896 1552.93 377.844C1552.93 377.879 1552.93 377.913 1552.93 377.965ZM1552.93 377.758C1552.93 377.723 1552.93 377.706 1552.93 377.672C1552.93 377.706 1552.93 377.723 1552.93 377.758ZM1552.93 377.585C1552.93 377.551 1552.93 377.516 1552.93 377.499C1552.93 377.516 1552.93 377.551 1552.93 377.585ZM1552.93 377.379C1552.93 377.361 1552.93 377.344 1552.93 377.327C1552.93 377.344 1552.93 377.361 1552.93 377.379ZM1552.93 377.206C1552.93 377.189 1552.93 377.171 1552.93 377.154C1552.93 377.189 1552.93 377.189 1552.93 377.206Z" fill="#8BDBFF"/>
<path d="M1978.72 757.669L1702.12 369.685H1805.03L2003.73 648.445V708.842C2003.73 708.912 2003.73 708.998 2003.73 709.067C2003.73 709.084 2003.73 709.102 2003.73 709.119C2003.73 709.171 2003.73 709.24 2003.73 709.292C2003.73 709.309 2003.73 709.327 2003.73 709.361C2003.73 709.413 2003.73 709.465 2003.73 709.534C2003.73 709.534 2003.73 709.551 2003.73 709.569C2003.49 729.373 1993.63 746.963 1978.72 757.669Z" fill="#8BDBFF"/>
<path d="M2478.6 769.073H2330.38L2330.34 769.036H2478.58L2478.6 769.073Z" fill="#FFD796"/>
<path d="M2478.57 769.034H2330.34L2167.42 540.503V429.908C2167.42 406.985 2180.22 387.048 2199.07 376.873L2478.57 769.034ZM2108.77 458.256V378.393C2108.77 378.337 2108.77 378.28 2108.77 378.205C2108.77 378.28 2108.77 378.337 2108.77 378.393V458.256ZM2108.77 378.149C2108.77 378.112 2108.77 378.074 2108.77 378.037C2108.77 378.074 2108.77 378.112 2108.77 378.149ZM2108.77 377.961C2108.77 377.924 2108.77 377.886 2108.77 377.849C2108.77 377.868 2108.77 377.924 2108.77 377.961ZM2108.77 377.755C2108.77 377.736 2108.77 377.699 2108.77 377.661C2108.77 377.699 2108.77 377.736 2108.77 377.755ZM2108.77 377.586C2108.77 377.548 2108.77 377.511 2108.77 377.492C2108.77 377.511 2108.77 377.548 2108.77 377.586ZM2108.79 377.379C2108.79 377.361 2108.79 377.342 2108.79 377.323C2108.79 377.342 2108.79 377.361 2108.79 377.379ZM2108.79 377.192C2108.79 377.192 2108.79 377.173 2108.79 377.154C2108.79 377.192 2108.79 377.192 2108.79 377.192Z" fill="#8BDBFF"/>
<path d="M2534.54 757.683L2257.95 369.692H2360.88L2559.55 648.458V708.851C2559.55 708.928 2559.55 709.006 2559.55 709.063C2559.55 709.102 2559.55 709.102 2559.55 709.14C2559.55 709.198 2559.55 709.237 2559.55 709.295C2559.55 709.314 2559.55 709.333 2559.55 709.372C2559.55 709.41 2559.55 709.487 2559.55 709.545C2559.55 709.545 2559.55 709.565 2559.55 709.584C2559.32 729.394 2549.46 746.968 2534.54 757.683Z" fill="#8BDBFF"/>
<path d="M3034.45 769.05H2886.22V769.027H3034.43L3034.45 769.05Z" fill="#FFD796"/>
<path d="M3034.43 769.042H2886.19L2723.28 540.505V429.897C2723.28 406.981 2736.05 387.06 2754.91 376.878L3034.43 769.042ZM2664.62 458.248V378.409C2664.62 378.342 2664.62 378.276 2664.62 378.209C2664.62 378.276 2664.62 378.342 2664.62 378.409V458.248ZM2664.62 378.143C2664.62 378.098 2664.62 378.076 2664.62 378.032C2664.62 378.076 2664.62 378.098 2664.62 378.143ZM2664.62 377.965C2664.62 377.921 2664.62 377.899 2664.62 377.854C2664.62 377.876 2664.62 377.921 2664.62 377.965ZM2664.62 377.765C2664.62 377.721 2664.62 377.699 2664.62 377.654C2664.62 377.699 2664.62 377.721 2664.62 377.765ZM2664.62 377.588C2664.62 377.544 2664.62 377.521 2664.62 377.499C2664.62 377.521 2664.62 377.544 2664.62 377.588ZM2664.62 377.388C2664.62 377.366 2664.62 377.344 2664.62 377.322C2664.62 377.344 2664.62 377.366 2664.62 377.388ZM2664.62 377.189V377.166C2664.62 377.189 2664.62 377.189 2664.62 377.189Z" fill="#8BDBFF"/>
<path d="M3090.39 757.692L2813.8 369.696H2916.72L3115.4 648.463V708.861C3115.4 708.929 3115.4 708.997 3115.4 709.065C3115.4 709.088 3115.4 709.111 3115.4 709.133C3115.4 709.179 3115.4 709.247 3115.4 709.292C3115.4 709.315 3115.4 709.338 3115.4 709.36C3115.4 709.406 3115.4 709.474 3115.4 709.542C3115.4 709.542 3115.4 709.564 3115.4 709.587C3115.16 729.387 3105.31 746.987 3090.39 757.692Z" fill="#8BDBFF"/>
<path d="M2723.9 769.079C2723.35 769.059 2722.81 769.039 2722.26 769.018C2715.97 768.755 2709.95 767.518 2704.29 765.449C2710.41 767.68 2717.03 768.937 2723.9 769.039C2723.9 769.039 2723.9 769.059 2723.9 769.079Z" fill="#D28644"/>
<path d="M2723.91 769.019C2717.03 768.935 2710.43 767.685 2704.29 765.456C2681.16 757.062 2664.6 734.919 2664.6 708.861V458.252L2723.26 540.511V760.353C2723.26 763.311 2723.43 766.269 2723.91 769.019ZM2664.62 378.222C2664.62 378.201 2664.62 378.18 2664.62 378.139C2664.62 378.18 2664.62 378.201 2664.62 378.222ZM2664.62 378.034C2664.62 378.014 2664.62 377.993 2664.62 377.951C2664.62 377.993 2664.62 378.014 2664.62 378.034ZM2664.62 377.847C2664.62 377.826 2664.62 377.805 2664.62 377.764C2664.62 377.805 2664.62 377.826 2664.62 377.847ZM2664.62 377.66C2664.62 377.639 2664.62 377.618 2664.62 377.576C2664.62 377.618 2664.62 377.639 2664.62 377.66ZM2664.62 377.493C2664.62 377.451 2664.62 377.43 2664.62 377.389C2664.62 377.43 2664.62 377.451 2664.62 377.493ZM2664.62 377.326C2664.62 377.284 2664.62 377.243 2664.62 377.201C2664.62 377.243 2664.62 377.284 2664.62 377.326ZM2664.62 377.16C2665.29 344.477 2692 318.189 2724.85 318.189H2777.09L2813.81 369.702H2783.48C2773.15 369.702 2763.4 372.285 2754.92 376.889L2713.81 319.21C2686.23 324.313 2665.21 348.247 2664.62 377.16Z" fill="#3F8CCA"/>
<path d="M2723.27 540.519L2664.6 458.254V378.405C2664.6 378.343 2664.6 378.282 2664.63 378.221C2664.63 378.2 2664.63 378.179 2664.63 378.159C2664.63 378.118 2664.63 378.077 2664.63 378.036C2664.63 378.016 2664.63 377.995 2664.63 377.954C2664.63 377.913 2664.63 377.872 2664.63 377.852C2664.63 377.831 2664.63 377.811 2664.63 377.77C2664.63 377.729 2664.63 377.709 2664.63 377.668C2664.63 377.647 2664.63 377.606 2664.63 377.586C2664.63 377.545 2664.63 377.525 2664.63 377.504C2664.63 377.463 2664.63 377.422 2664.63 377.381C2664.63 377.361 2664.63 377.34 2664.63 377.32C2664.63 377.279 2664.63 377.238 2664.63 377.197C2664.63 377.197 2664.63 377.197 2664.63 377.156C2665.2 348.254 2686.22 324.326 2713.81 319.208L2754.91 376.89C2736.06 387.063 2723.27 406.979 2723.27 429.905V540.519Z" fill="#81A0CA"/>
<path d="M3114.75 369.694H2916.72L2880.01 318.196H3055.18C3085.48 318.196 3110.6 340.6 3114.75 369.694Z" fill="#3F8CCA"/>
<path d="M2916.72 369.694H2813.81L2777.07 318.186H2880.02L2916.72 369.694Z" fill="#81A0CA"/>
<path d="M2168.07 769.054C2167.51 769.054 2166.96 769.037 2166.42 769.003C2160.14 768.733 2154.1 767.502 2148.45 765.444C2154.59 767.671 2161.19 768.919 2168.05 769.02C2168.05 769.037 2168.07 769.054 2168.07 769.054Z" fill="#D28644"/>
<path d="M2168.06 769.017C2161.18 768.92 2154.6 767.668 2148.45 765.452C2125.33 757.052 2108.78 734.915 2108.78 708.847V458.247L2167.41 540.496V760.347C2167.41 763.314 2167.6 766.261 2168.06 769.017ZM2108.78 378.214C2108.78 378.195 2108.78 378.176 2108.78 378.137C2108.78 378.176 2108.78 378.195 2108.78 378.214ZM2108.78 378.041C2108.78 378.002 2108.78 377.983 2108.78 377.945C2108.78 377.983 2108.78 378.002 2108.78 378.041ZM2108.78 377.848C2108.78 377.829 2108.78 377.79 2108.78 377.752C2108.78 377.79 2108.78 377.829 2108.78 377.848ZM2108.78 377.656C2108.78 377.636 2108.78 377.598 2108.78 377.578C2108.78 377.598 2108.78 377.636 2108.78 377.656ZM2108.78 377.482C2108.78 377.444 2108.78 377.424 2108.78 377.386C2108.78 377.424 2108.78 377.444 2108.78 377.482ZM2108.78 377.309C2108.78 377.27 2108.78 377.232 2108.78 377.193C2108.78 377.232 2108.78 377.27 2108.78 377.309ZM2108.78 377.155C2109.43 344.479 2136.16 318.18 2168.99 318.18H2221.24L2257.96 369.679H2227.63C2217.29 369.679 2207.58 372.28 2199.08 376.866L2157.97 319.201C2130.4 324.306 2109.38 348.255 2108.78 377.155ZM2558.92 369.679H2360.88L2324.16 318.18H2499.35C2529.64 318.18 2554.74 340.587 2558.92 369.679Z" fill="#3F8CCA"/>
<path d="M2167.42 540.501L2108.77 458.247V378.405C2108.77 378.352 2108.77 378.282 2108.77 378.211C2108.77 378.194 2108.77 378.176 2108.77 378.141C2108.77 378.106 2108.77 378.071 2108.77 378.035C2108.77 378.018 2108.77 377.982 2108.77 377.965C2108.77 377.912 2108.77 377.877 2108.77 377.842C2108.77 377.824 2108.77 377.789 2108.77 377.754C2108.77 377.736 2108.77 377.701 2108.77 377.665C2108.77 377.63 2108.77 377.613 2108.77 377.577C2108.77 377.542 2108.77 377.525 2108.77 377.489C2108.79 377.454 2108.79 377.419 2108.79 377.384C2108.79 377.349 2108.79 377.349 2108.79 377.313C2108.79 377.278 2108.79 377.243 2108.79 377.19C2108.79 377.19 2108.79 377.19 2108.79 377.155C2109.37 348.246 2130.38 324.32 2157.97 319.197L2199.07 376.873C2180.22 387.049 2167.42 406.979 2167.42 429.902V540.501Z" fill="#81A0CA"/>
<path d="M2360.89 369.688H2257.98L2221.24 318.169H2324.17L2360.89 369.688Z" fill="#81A0CA"/>
<path d="M1612.22 769.062C1611.67 769.047 1611.12 769.032 1610.57 769.002C1604.3 768.749 1598.26 767.5 1592.6 765.449C1598.74 767.679 1605.34 768.928 1612.22 769.017C1612.22 769.032 1612.22 769.047 1612.22 769.062Z" fill="#D28644"/>
<path d="M1612.21 769.026C1605.34 768.921 1598.74 767.67 1592.61 765.451C1569.48 757.05 1552.93 734.912 1552.93 708.846V458.245L1611.58 540.493V760.344C1611.58 763.32 1611.75 766.261 1612.21 769.026ZM1552.93 378.198C1552.93 378.198 1552.93 378.163 1552.93 378.146C1552.93 378.163 1552.93 378.198 1552.93 378.198ZM1552.95 378.022C1552.95 378.005 1552.95 377.97 1552.95 377.952C1552.95 377.97 1552.95 378.005 1552.95 378.022ZM1552.95 377.846C1552.95 377.811 1552.95 377.793 1552.95 377.758C1552.95 377.793 1552.95 377.811 1552.95 377.846ZM1552.95 377.652C1552.95 377.635 1552.95 377.6 1552.95 377.582C1552.95 377.6 1552.95 377.635 1552.95 377.652ZM1552.95 377.476C1552.95 377.441 1552.95 377.423 1552.95 377.371C1552.95 377.423 1552.95 377.441 1552.95 377.476ZM1552.95 377.318C1552.95 377.265 1552.95 377.23 1552.95 377.194C1552.95 377.23 1552.95 377.265 1552.95 377.318ZM1552.95 377.142C1553.6 344.471 1580.3 318.177 1613.14 318.177H1665.4L1702.12 369.692H1671.79C1661.45 369.692 1651.73 372.281 1643.23 376.877L1602.12 319.198C1574.54 324.306 1553.53 348.24 1552.95 377.142ZM2003.07 369.692H1805.03L1768.32 318.177H1943.51C1973.8 318.177 1998.92 340.597 2003.07 369.692Z" fill="#3F8CCA"/>
<path d="M1611.57 540.501L1552.93 458.247V378.405C1552.93 378.352 1552.93 378.282 1552.93 378.211C1552.93 378.194 1552.93 378.176 1552.93 378.141C1552.93 378.106 1552.93 378.071 1552.93 378.035C1552.93 378.018 1552.93 377.982 1552.93 377.965C1552.93 377.912 1552.93 377.877 1552.93 377.842C1552.93 377.824 1552.93 377.789 1552.93 377.754C1552.93 377.736 1552.93 377.701 1552.93 377.665C1552.93 377.63 1552.93 377.613 1552.93 377.577C1552.93 377.542 1552.93 377.525 1552.93 377.489C1552.93 377.454 1552.93 377.419 1552.93 377.384C1552.93 377.349 1552.93 377.349 1552.93 377.313C1552.93 377.278 1552.93 377.243 1552.93 377.19C1552.93 377.19 1552.93 377.19 1552.93 377.155C1553.52 348.246 1574.53 324.32 1602.12 319.197L1643.23 376.873C1624.37 387.049 1611.57 406.979 1611.57 429.902V540.501Z" fill="#81A0CA"/>
<path d="M1805.03 369.692H1702.12L1665.4 318.177H1768.32L1805.03 369.692Z" fill="#81A0CA"/>
<path d="M1056.37 769.077C1055.8 769.062 1055.27 769.047 1054.72 769.018C1048.37 768.75 1042.29 767.501 1036.59 765.405C1042.76 767.665 1049.42 768.943 1056.35 769.033C1056.35 769.047 1056.37 769.062 1056.37 769.077Z" fill="#D28644"/>
<path d="M1056.36 769.026C1049.43 768.921 1042.78 767.653 1036.6 765.398C1013.56 756.944 997.083 734.841 997.083 708.846V458.245L1055.72 540.493V760.344C1055.72 763.32 1055.91 766.261 1056.36 769.026ZM997.083 378.198C997.083 378.198 997.083 378.163 997.083 378.146C997.083 378.163 997.083 378.198 997.083 378.198ZM997.083 378.022C997.083 378.005 997.083 377.97 997.083 377.952C997.083 377.97 997.083 378.005 997.083 378.022ZM997.083 377.846C997.083 377.811 997.083 377.793 997.083 377.758C997.083 377.793 997.083 377.811 997.083 377.846ZM997.083 377.652C997.083 377.635 997.083 377.6 997.083 377.582C997.083 377.6 997.083 377.635 997.083 377.652ZM997.083 377.476C997.083 377.441 997.083 377.423 997.096 377.371C997.083 377.423 997.083 377.441 997.083 377.476ZM997.096 377.318C997.096 377.265 997.096 377.23 997.096 377.194C997.096 377.23 997.096 377.265 997.096 377.318ZM997.096 377.142C997.749 344.471 1024.46 318.177 1057.3 318.177H1109.55L1146.27 369.692H1115.94C1105.6 369.692 1095.88 372.281 1087.38 376.877L1046.27 319.198C1018.68 324.306 997.682 348.24 997.096 377.142ZM1447.24 369.692H1249.19L1212.47 318.177H1387.66C1417.95 318.177 1443.07 340.597 1447.24 369.692Z" fill="#3F8CCA"/>
<path d="M1055.72 540.501L997.078 458.247V378.405C997.078 378.352 997.078 378.282 997.078 378.211C997.078 378.194 997.078 378.176 997.078 378.141C997.078 378.106 997.078 378.071 997.078 378.035C997.078 378.018 997.078 377.982 997.078 377.965C997.078 377.912 997.078 377.877 997.078 377.842C997.078 377.824 997.078 377.789 997.078 377.754C997.078 377.736 997.078 377.701 997.078 377.665C997.078 377.63 997.078 377.613 997.078 377.577C997.078 377.542 997.078 377.525 997.078 377.489C997.078 377.454 997.078 377.419 997.092 377.384C997.092 377.349 997.092 377.349 997.092 377.313C997.092 377.278 997.092 377.243 997.092 377.19C997.092 377.19 997.092 377.19 997.092 377.155C997.679 348.246 1018.68 324.32 1046.27 319.197L1087.37 376.873C1068.53 387.049 1055.72 406.979 1055.72 429.902V540.501Z" fill="#81A0CA"/>
<path d="M1249.19 369.692H1146.27L1109.55 318.177H1212.47L1249.19 369.692Z" fill="#81A0CA"/>
<path d="M500.522 769.062C499.971 769.044 499.423 769.026 498.877 769.009C498.125 768.973 497.378 768.938 496.635 768.868C497.919 768.974 499.215 769.026 500.522 769.062ZM442.224 719.783C442.223 719.783 442.223 719.783 442.223 719.783H442.224ZM442.191 719.607C442.191 719.607 442.189 719.589 442.187 719.572C442.189 719.589 442.191 719.607 442.191 719.607ZM442.159 719.431C442.158 719.413 442.156 719.413 442.154 719.396C442.156 719.413 442.158 719.413 442.159 719.431ZM442.128 719.237C442.124 719.237 442.124 719.22 442.121 719.202C442.122 719.22 442.124 719.237 442.128 719.237ZM442.096 719.079C442.092 719.043 442.091 719.026 442.087 719.026C442.091 719.026 442.092 719.043 442.096 719.079ZM442.066 718.885C442.062 718.867 442.059 718.85 442.055 718.832C442.059 718.85 442.062 718.867 442.066 718.885ZM442.036 718.709C442.031 718.691 442.029 718.656 442.025 718.638C442.029 718.656 442.031 718.691 442.036 718.709ZM442.006 718.533C442.003 718.498 441.997 718.48 441.994 718.445C441.997 718.48 442.003 718.498 442.006 718.533ZM441.978 718.357C441.973 718.304 441.967 718.286 441.962 718.251C441.967 718.286 441.973 718.304 441.978 718.357ZM441.95 718.163C441.943 718.128 441.937 718.092 441.934 718.057C441.937 718.092 441.943 718.145 441.95 718.163ZM441.922 717.987C441.916 717.952 441.909 717.916 441.906 717.864C441.909 717.916 441.916 717.952 441.922 717.987ZM441.893 717.793C441.888 717.758 441.883 717.723 441.876 717.687C441.883 717.723 441.888 717.758 441.893 717.793ZM441.867 717.617C441.86 717.582 441.855 717.546 441.849 717.494C441.855 717.546 441.862 717.582 441.867 717.617ZM441.841 717.423C441.834 717.388 441.828 717.335 441.821 717.3C441.828 717.335 441.834 717.388 441.841 717.423ZM441.812 717.247C441.807 717.212 441.8 717.159 441.795 717.106C441.8 717.159 441.807 717.212 441.812 717.247ZM441.788 717.053C441.781 717.018 441.775 716.965 441.768 716.93C441.775 716.965 441.781 717.018 441.788 717.053ZM441.763 716.877C441.756 716.824 441.751 716.772 441.744 716.719C441.751 716.772 441.758 716.824 441.763 716.877ZM441.738 716.684C441.731 716.631 441.726 716.596 441.719 716.543C441.726 716.596 441.731 716.631 441.738 716.684ZM441.714 716.49C441.707 716.454 441.701 716.402 441.696 716.349C441.701 716.402 441.707 716.454 441.714 716.49ZM441.691 716.314C441.684 716.261 441.679 716.208 441.672 716.173C441.679 716.208 441.684 716.261 441.691 716.314ZM441.668 716.12C441.661 716.067 441.656 716.014 441.649 715.979C441.656 716.014 441.663 716.067 441.668 716.12ZM441.645 715.944C441.64 715.891 441.633 715.838 441.626 715.785C441.633 715.838 441.64 715.891 441.645 715.944ZM441.624 715.75C441.617 715.697 441.612 715.644 441.606 715.592C441.612 715.644 441.617 715.697 441.624 715.75ZM441.603 715.556C441.598 715.503 441.59 715.451 441.585 715.398C441.59 715.451 441.598 715.503 441.603 715.556ZM441.582 715.38C441.576 715.31 441.571 715.257 441.564 715.204C441.571 715.257 441.576 715.31 441.582 715.38ZM441.562 715.187C441.555 715.134 441.55 715.063 441.543 715.01C441.55 715.063 441.555 715.134 441.562 715.187ZM441.543 714.993C441.538 714.94 441.531 714.887 441.527 714.834C441.531 714.887 441.538 714.94 441.543 714.993ZM441.524 714.799C441.518 714.746 441.511 714.693 441.506 714.623C441.511 714.693 441.518 714.746 441.524 714.799ZM441.504 714.623C441.499 714.57 441.495 714.5 441.488 714.447C441.495 714.5 441.499 714.57 441.504 714.623ZM441.488 714.429C441.483 714.359 441.476 714.306 441.471 714.253C441.476 714.306 441.483 714.359 441.488 714.429ZM441.471 714.235C441.465 714.183 441.46 714.13 441.455 714.059C441.46 714.13 441.465 714.183 441.471 714.235ZM441.453 714.042C441.45 713.989 441.444 713.918 441.439 713.866C441.444 713.918 441.45 713.989 441.453 714.042ZM441.439 713.866C441.434 713.813 441.428 713.742 441.423 713.69C441.428 713.742 441.434 713.795 441.439 713.866ZM441.421 713.672C441.418 713.601 441.413 713.549 441.409 713.478C441.413 713.549 441.416 713.601 441.421 713.672ZM441.407 713.478C441.404 713.425 441.398 713.355 441.395 713.302C441.398 713.355 441.404 713.425 441.407 713.478ZM441.393 713.284C441.39 713.214 441.384 713.161 441.379 713.091C441.384 713.161 441.39 713.214 441.393 713.284ZM441.379 713.091C441.376 713.038 441.37 712.967 441.367 712.897C441.372 712.967 441.376 713.038 441.379 713.091ZM441.367 712.897C441.362 712.844 441.358 712.774 441.354 712.721C441.358 712.774 441.362 712.844 441.367 712.897ZM441.354 712.703C441.351 712.65 441.346 712.598 441.344 712.545C441.346 712.598 441.351 712.65 441.354 712.703ZM441.342 712.509C441.339 712.457 441.335 712.404 441.333 712.351C441.335 712.404 441.339 712.457 441.342 712.509ZM441.33 712.333C441.328 712.263 441.325 712.21 441.321 712.157C441.325 712.21 441.328 712.263 441.33 712.333ZM441.321 712.14C441.317 712.069 441.314 712.016 441.312 711.946C441.314 712.016 441.317 712.069 441.321 712.14ZM441.31 711.946C441.307 711.893 441.305 711.823 441.302 711.77C441.305 711.823 441.307 711.893 441.31 711.946ZM441.3 711.752C441.298 711.682 441.296 711.629 441.293 711.576C441.296 711.629 441.298 711.699 441.3 711.752ZM441.291 711.558C441.291 711.506 441.288 711.453 441.286 711.4C441.288 711.453 441.291 711.506 441.291 711.558ZM441.284 711.365C441.282 711.312 441.281 711.259 441.279 711.206C441.281 711.259 441.282 711.312 441.284 711.365ZM441.275 711.171C441.273 711.118 441.273 711.065 441.272 711.03C441.273 711.065 441.273 711.118 441.275 711.171ZM441.268 710.977C441.268 710.924 441.266 710.889 441.265 710.836C441.266 710.872 441.268 710.924 441.268 710.977ZM441.263 710.784C441.261 710.731 441.259 710.678 441.259 710.625C441.259 710.678 441.261 710.731 441.263 710.784ZM441.258 710.59C441.256 710.537 441.254 710.484 441.252 710.449C441.254 710.484 441.256 710.537 441.258 710.59ZM441.252 710.396C441.251 710.343 441.249 710.29 441.247 710.237C441.249 710.29 441.251 710.343 441.252 710.396ZM441.247 710.202C441.245 710.15 441.245 710.097 441.243 710.044C441.245 710.097 441.245 710.15 441.247 710.202ZM441.243 710.009C441.242 709.973 441.242 709.938 441.24 709.903C441.242 709.938 441.242 709.973 441.243 710.009ZM441.24 709.797C441.24 709.78 441.238 709.744 441.238 709.709C441.238 709.744 441.24 709.78 441.24 709.797ZM441.236 709.621C441.236 709.586 441.236 709.568 441.236 709.533C441.236 709.568 441.236 709.586 441.236 709.621ZM441.235 709.41C441.235 709.41 441.235 709.392 441.235 709.375C441.235 709.392 441.235 709.41 441.235 709.41ZM441.233 709.234V709.216V709.234ZM441.233 709.04C441.231 708.969 441.231 708.917 441.231 708.846C441.231 708.917 441.231 708.969 441.233 709.04ZM441.233 378.198C441.233 378.198 441.233 378.163 441.233 378.146C441.233 378.163 441.233 378.198 441.233 378.198ZM441.233 378.022C441.233 378.005 441.233 377.97 441.235 377.952C441.233 377.97 441.233 378.005 441.233 378.022ZM441.235 377.846C441.235 377.811 441.236 377.793 441.236 377.758C441.236 377.793 441.235 377.811 441.235 377.846ZM441.236 377.653C441.236 377.635 441.236 377.6 441.238 377.582C441.236 377.6 441.236 377.635 441.236 377.653ZM441.238 377.476C441.24 377.441 441.24 377.424 441.24 377.371C441.24 377.424 441.24 377.441 441.238 377.476ZM441.24 377.318C441.242 377.265 441.243 377.23 441.243 377.195C441.243 377.23 441.242 377.265 441.24 377.318ZM441.245 377.142C441.904 344.524 468.507 318.265 501.269 318.177C497.537 318.194 493.981 318.564 490.423 319.198C462.839 324.306 441.828 348.24 441.245 377.142ZM833.255 318.194C833.243 318.194 833.229 318.194 833.216 318.194C833.229 318.194 833.243 318.194 833.255 318.194ZM833.082 318.194C833.068 318.194 833.042 318.194 833.029 318.194C833.042 318.194 833.068 318.194 833.082 318.194ZM832.908 318.194C832.882 318.194 832.869 318.194 832.843 318.194C832.869 318.194 832.882 318.194 832.908 318.194ZM832.735 318.177C832.709 318.177 832.668 318.177 832.642 318.177C832.682 318.177 832.709 318.177 832.735 318.177ZM832.549 318.177C832.522 318.177 832.496 318.177 832.455 318.177C832.496 318.177 832.522 318.177 832.549 318.177ZM832.362 318.177C832.336 318.177 832.295 318.177 832.269 318.177C832.295 318.177 832.336 318.177 832.362 318.177ZM832.175 318.177C832.137 318.177 832.108 318.177 832.068 318.177C832.108 318.177 832.137 318.177 832.175 318.177ZM832.003 318.177C831.936 318.177 831.869 318.177 831.816 318.177C831.869 318.177 831.936 318.177 832.003 318.177Z" fill="#D28644"/>
<path d="M500.522 769.062C499.215 769.026 497.919 768.974 496.635 768.868C469.315 766.666 447.091 746.289 442.224 719.783H442.223C442.212 719.73 442.202 719.678 442.191 719.607C442.191 719.607 442.189 719.589 442.187 719.572C442.179 719.537 442.168 719.484 442.159 719.431C442.158 719.413 442.156 719.413 442.154 719.396C442.145 719.343 442.136 719.29 442.128 719.237C442.124 719.237 442.122 719.22 442.121 719.202C442.114 719.167 442.105 719.114 442.096 719.079C442.092 719.043 442.091 719.026 442.087 719.026C442.08 718.973 442.073 718.938 442.066 718.885C442.062 718.867 442.059 718.85 442.055 718.832C442.048 718.797 442.043 718.744 442.036 718.709C442.031 718.691 442.029 718.656 442.025 718.638C442.018 718.603 442.013 718.568 442.006 718.533C442.003 718.498 441.997 718.48 441.994 718.445C441.989 718.41 441.983 718.374 441.978 718.357C441.973 718.304 441.967 718.286 441.962 718.251C441.959 718.216 441.953 718.198 441.95 718.163C441.943 718.145 441.937 718.092 441.934 718.057C441.929 718.04 441.925 718.004 441.922 717.987C441.916 717.952 441.909 717.916 441.906 717.864C441.9 717.846 441.897 717.811 441.893 717.793C441.888 717.758 441.883 717.723 441.876 717.687C441.872 717.652 441.869 717.635 441.867 717.617C441.862 717.582 441.855 717.546 441.849 717.494C441.846 717.476 441.842 717.441 441.841 717.423C441.834 717.388 441.828 717.335 441.821 717.3C441.818 717.282 441.816 717.265 441.812 717.247C441.807 717.212 441.8 717.159 441.795 717.106C441.793 717.106 441.789 717.071 441.788 717.053C441.781 717.018 441.775 716.965 441.768 716.93C441.767 716.895 441.765 716.877 441.763 716.877C441.758 716.824 441.751 716.772 441.744 716.719C441.742 716.719 441.74 716.701 441.738 716.684C441.731 716.631 441.726 716.596 441.719 716.543C441.717 716.525 441.715 716.507 441.714 716.49C441.707 716.454 441.701 716.402 441.696 716.349C441.694 716.331 441.693 716.331 441.691 716.314C441.684 716.261 441.679 716.208 441.672 716.173C441.67 716.155 441.67 716.138 441.668 716.12C441.663 716.067 441.656 716.014 441.649 715.979C441.647 715.961 441.647 715.944 441.645 715.944C441.64 715.891 441.633 715.838 441.626 715.785C441.626 715.768 441.624 715.768 441.624 715.75C441.617 715.697 441.612 715.644 441.606 715.592C441.605 715.574 441.605 715.556 441.603 715.556C441.598 715.503 441.59 715.451 441.585 715.398C441.583 715.398 441.582 715.38 441.582 715.38C441.576 715.31 441.571 715.257 441.564 715.204L441.562 715.187C441.555 715.134 441.55 715.063 441.543 715.01C441.543 715.01 441.543 715.01 441.543 714.993C441.538 714.94 441.531 714.887 441.527 714.834C441.525 714.817 441.524 714.817 441.524 714.799C441.518 714.746 441.511 714.693 441.506 714.623H441.504C441.499 714.57 441.495 714.5 441.488 714.447C441.488 714.429 441.488 714.429 441.488 714.429C441.483 714.359 441.476 714.306 441.471 714.253C441.471 714.253 441.471 714.253 441.471 714.235C441.465 714.183 441.46 714.13 441.455 714.059C441.455 714.059 441.455 714.059 441.453 714.042C441.45 713.989 441.444 713.918 441.439 713.866C441.434 713.795 441.428 713.742 441.423 713.69C441.421 713.672 441.421 713.672 441.421 713.672C441.416 713.601 441.413 713.549 441.409 713.478C441.407 713.478 441.407 713.478 441.407 713.478C441.404 713.425 441.398 713.355 441.395 713.302C441.395 713.302 441.395 713.284 441.393 713.284C441.39 713.214 441.384 713.161 441.379 713.091C441.376 713.038 441.372 712.967 441.367 712.897C441.362 712.844 441.358 712.774 441.354 712.721C441.354 712.703 441.354 712.703 441.354 712.703C441.351 712.65 441.346 712.598 441.344 712.545C441.342 712.527 441.342 712.527 441.342 712.509C441.339 712.457 441.335 712.404 441.333 712.351C441.332 712.333 441.332 712.333 441.33 712.333C441.328 712.263 441.325 712.21 441.321 712.157V712.14C441.317 712.069 441.314 712.016 441.312 711.946C441.31 711.946 441.31 711.946 441.31 711.946C441.307 711.893 441.305 711.823 441.302 711.77C441.3 711.77 441.3 711.752 441.3 711.752C441.298 711.699 441.296 711.629 441.293 711.576C441.293 711.558 441.293 711.558 441.291 711.558C441.291 711.506 441.288 711.453 441.286 711.4C441.286 711.4 441.284 711.382 441.284 711.365C441.282 711.312 441.281 711.259 441.279 711.206C441.277 711.188 441.277 711.171 441.275 711.171C441.273 711.118 441.273 711.065 441.272 711.03C441.27 711.012 441.27 710.995 441.268 710.977C441.268 710.924 441.266 710.872 441.265 710.836C441.263 710.819 441.263 710.784 441.263 710.784C441.261 710.731 441.259 710.678 441.259 710.625C441.259 710.625 441.258 710.607 441.258 710.59C441.256 710.537 441.254 710.484 441.252 710.449C441.252 710.431 441.252 710.414 441.252 710.396C441.251 710.343 441.249 710.29 441.247 710.237C441.247 710.237 441.247 710.22 441.247 710.202C441.245 710.15 441.245 710.097 441.243 710.044C441.243 710.026 441.243 710.026 441.243 710.009C441.242 709.973 441.242 709.938 441.24 709.903C441.24 709.868 441.24 709.85 441.24 709.797C441.24 709.78 441.238 709.744 441.238 709.709C441.238 709.691 441.236 709.639 441.236 709.621C441.236 709.586 441.236 709.568 441.236 709.533C441.236 709.498 441.236 709.463 441.235 709.41C441.235 709.41 441.235 709.392 441.235 709.375C441.235 709.322 441.235 709.287 441.233 709.234V709.216C441.233 709.163 441.233 709.093 441.233 709.04C441.231 708.969 441.231 708.917 441.231 708.846V458.245L499.874 540.493V760.344C499.874 763.32 500.061 766.279 500.522 769.062ZM441.245 377.142C441.828 348.24 462.839 324.306 490.423 319.198C493.981 318.564 497.537 318.194 501.269 318.177C501.329 318.177 501.388 318.177 501.45 318.177H553.7L590.421 369.692H560.091C549.756 369.692 540.031 372.281 531.533 376.878L490.423 319.198C462.839 324.306 441.828 348.24 441.245 377.142ZM891.376 369.692H693.338L656.622 318.177H831.816C831.869 318.177 831.936 318.177 832.003 318.177C832.015 318.177 832.041 318.177 832.068 318.177C832.108 318.177 832.137 318.177 832.175 318.177C832.202 318.177 832.242 318.177 832.269 318.177C832.295 318.177 832.336 318.177 832.362 318.177C832.402 318.177 832.429 318.177 832.455 318.177C832.496 318.177 832.522 318.177 832.549 318.177C832.575 318.177 832.616 318.177 832.642 318.177C832.668 318.177 832.709 318.177 832.735 318.177C832.762 318.177 832.802 318.194 832.843 318.194C832.869 318.194 832.882 318.194 832.908 318.194C832.948 318.194 832.989 318.194 833.029 318.194C833.042 318.194 833.068 318.194 833.082 318.194C833.123 318.194 833.176 318.194 833.216 318.194C833.229 318.194 833.243 318.194 833.255 318.194C862.896 318.881 887.269 341.055 891.376 369.692Z" fill="#3F8CCA"/>
<path d="M499.871 540.501L441.228 458.247V378.405C441.228 378.352 441.228 378.282 441.23 378.211C441.23 378.194 441.23 378.176 441.23 378.141C441.23 378.106 441.23 378.071 441.23 378.035C441.23 378.018 441.23 377.982 441.232 377.965C441.232 377.912 441.232 377.877 441.232 377.842C441.232 377.824 441.234 377.789 441.234 377.754C441.234 377.736 441.234 377.701 441.235 377.665C441.235 377.63 441.235 377.613 441.235 377.577C441.235 377.542 441.235 377.525 441.235 377.489C441.237 377.454 441.237 377.419 441.239 377.384C441.239 377.349 441.239 377.349 441.239 377.313C441.239 377.278 441.241 377.243 441.241 377.19C441.241 377.19 441.242 377.19 441.242 377.155C441.827 348.246 462.838 324.32 490.42 319.197L531.53 376.873C512.679 387.049 499.871 406.979 499.871 429.902V540.501Z" fill="#81A0CA"/>
<path d="M693.338 369.692H590.421L553.7 318.177H656.622L693.338 369.692Z" fill="#81A0CA"/>
<path d="M3103.09 820.019H2772.65C2742.16 820.019 2716.96 797.412 2712.96 767.958C2716.04 768.556 2719.09 768.901 2722.27 769.015C2722.82 769.038 2723.37 769.061 2723.9 769.061C2724.22 769.061 2724.52 769.061 2724.84 769.061H3055.19C3072.1 769.061 3087.37 762.1 3098.31 750.888C3108.9 740.045 3115.45 725.18 3115.45 708.822V378.405C3115.45 375.648 3115.24 372.914 3114.9 370.249C3142.47 375.74 3163.3 400.092 3163.3 429.362V759.803C3163.3 793.069 3136.36 820.019 3103.09 820.019Z" fill="#FFDEA9"/>
<path d="M3098.32 750.882C3108.73 740.199 3115.22 725.638 3115.43 709.558V709.535C3115.43 709.467 3115.43 709.399 3115.43 709.353C3115.43 709.331 3115.43 709.308 3115.43 709.285C3115.43 709.24 3115.43 709.172 3115.43 709.127C3115.43 709.104 3115.43 709.081 3115.43 709.059C3115.43 708.991 3115.43 708.922 3115.43 708.854V378.395C3115.43 375.628 3115.24 372.929 3114.86 370.253C3114.88 370.253 3114.88 370.253 3114.9 370.253C3115.27 372.907 3115.45 375.628 3115.45 378.395V708.809C3115.45 725.184 3108.92 740.04 3098.32 750.882Z" fill="#A0E2FF"/>
<path d="M2723.9 769.079C2723.35 769.079 2722.81 769.039 2722.26 769.018C2722.81 769.039 2723.35 769.059 2723.9 769.079Z" fill="#EBC8AB"/>
<path d="M2547.23 820.032H2216.79C2186.31 820.032 2161.11 797.416 2157.14 767.952C2160.19 768.539 2163.27 768.891 2166.42 769.009C2166.96 769.028 2167.51 769.067 2168.06 769.067C2168.37 769.067 2168.69 769.067 2168.98 769.067H2499.34C2516.24 769.067 2531.52 762.102 2542.46 750.892C2553.06 740.034 2559.6 725.185 2559.6 708.829V378.388C2559.6 375.63 2559.42 372.91 2559.05 370.25C2586.64 375.728 2607.45 400.085 2607.45 429.353V759.794C2607.45 793.073 2580.51 820.032 2547.23 820.032Z" fill="#FFDEA9"/>
<path d="M2542.46 750.884C2552.89 740.208 2559.37 725.639 2559.56 709.567C2559.56 709.567 2559.56 709.548 2559.56 709.529C2559.56 709.471 2559.56 709.413 2559.56 709.356C2559.56 709.336 2559.56 709.317 2559.56 709.298C2559.56 709.24 2559.56 709.182 2559.56 709.124C2559.56 709.105 2559.56 709.086 2559.56 709.066C2559.56 709.009 2559.56 708.912 2559.56 708.854V378.401C2559.56 375.626 2559.38 372.928 2559.02 370.25C2559.02 370.25 2559.04 370.25 2559.06 370.25C2559.4 372.928 2559.6 375.645 2559.6 378.401V708.835C2559.6 725.177 2553.06 740.034 2542.46 750.884Z" fill="#A0E2FF"/>
<path d="M2168.07 769.054C2167.53 769.054 2166.96 769.037 2166.42 769.003C2166.96 769.037 2167.51 769.054 2168.07 769.054Z" fill="#EBC8AB"/>
<path d="M1991.4 820.028H1660.94C1630.47 820.028 1605.27 797.41 1601.28 767.961C1604.34 768.549 1607.42 768.894 1610.57 769.015C1611.12 769.033 1611.67 769.067 1612.21 769.067C1612.52 769.067 1612.83 769.067 1613.14 769.067H1943.5C1960.39 769.067 1975.68 762.098 1986.61 750.893C1997.21 740.033 2003.75 725.179 2003.75 708.82V378.394C2003.75 375.645 2003.56 372.913 2003.19 370.25C2030.79 375.731 2051.61 400.096 2051.61 429.355V759.798C2051.61 793.069 2024.65 820.028 1991.4 820.028Z" fill="#FFDEA9"/>
<path d="M1986.61 750.894C1997.04 740.189 2003.52 725.629 2003.73 709.564C2003.73 709.564 2003.73 709.547 2003.73 709.53C2003.73 709.461 2003.73 709.409 2003.73 709.357C2003.73 709.322 2003.73 709.322 2003.73 709.288C2003.73 709.236 2003.73 709.184 2003.73 709.132C2003.73 709.098 2003.73 709.097 2003.73 709.063C2003.73 708.994 2003.73 708.924 2003.73 708.855V378.395C2003.73 375.628 2003.54 372.931 2003.16 370.25C2003.18 370.25 2003.19 370.25 2003.19 370.25C2003.56 372.913 2003.75 375.646 2003.75 378.395V708.821C2003.75 725.18 1997.21 740.034 1986.61 750.894Z" fill="#A0E2FF"/>
<path d="M1612.22 769.071C1611.67 769.071 1611.12 769.042 1610.57 769.012C1611.12 769.042 1611.67 769.056 1612.22 769.071Z" fill="#EBC8AB"/>
<path d="M1435.55 820.028H1105.09C1074.61 820.028 1049.43 797.41 1045.44 767.961C1048.51 768.549 1051.57 768.894 1054.72 769.015C1055.27 769.033 1055.81 769.067 1056.37 769.067C1056.68 769.067 1056.99 769.067 1057.29 769.067H1387.65C1404.56 769.067 1419.85 762.098 1430.78 750.893C1441.38 740.033 1447.91 725.179 1447.91 708.82V378.394C1447.91 375.645 1447.72 372.913 1447.36 370.25C1474.94 375.731 1495.76 400.096 1495.76 429.355V759.798C1495.76 793.069 1468.82 820.028 1435.55 820.028Z" fill="#FFDEA9"/>
<path d="M1430.78 750.894C1441.2 740.189 1447.69 725.629 1447.86 709.564C1447.86 709.564 1447.86 709.547 1447.86 709.53C1447.86 709.461 1447.86 709.409 1447.86 709.357C1447.86 709.322 1447.86 709.322 1447.86 709.288C1447.86 709.236 1447.86 709.184 1447.86 709.132C1447.86 709.098 1447.86 709.097 1447.86 709.063C1447.86 708.994 1447.86 708.924 1447.86 708.855V378.395C1447.86 375.628 1447.69 372.931 1447.32 370.25C1447.34 370.25 1447.34 370.25 1447.36 370.25C1447.72 372.913 1447.91 375.646 1447.91 378.395V708.821C1447.91 725.18 1441.38 740.034 1430.78 750.894Z" fill="#A0E2FF"/>
<path d="M1056.38 769.071C1055.81 769.071 1055.26 769.042 1054.71 769.012C1055.26 769.042 1055.81 769.056 1056.38 769.071Z" fill="#EBC8AB"/>
<path d="M879.705 820.028H549.25C518.771 820.028 493.574 797.41 489.589 767.961C492.654 768.549 495.72 768.894 498.875 769.015C499.422 769.033 499.972 769.067 500.522 769.067C500.52 769.067 500.52 769.067 500.52 769.067C500.828 769.067 501.136 769.067 501.447 769.067H831.812C831.866 769.067 831.919 769.067 831.987 769.067C831.999 769.067 832.026 769.067 832.052 769.067C832.078 769.067 832.12 769.067 832.146 769.067C832.186 769.067 832.213 769.067 832.253 769.067C832.265 769.067 832.279 769.067 832.293 769.067C865.079 768.808 891.639 742.333 892.013 709.564C892.013 709.564 892.013 709.546 892.026 709.529C892.026 709.46 892.026 709.408 892.026 709.356C892.026 709.322 892.026 709.321 892.026 709.287C892.026 709.235 892.026 709.183 892.026 709.131C892.026 709.097 892.026 709.097 892.026 709.062C892.026 708.993 892.026 708.924 892.026 708.855V378.394C892.026 378.308 892.026 378.256 892.026 378.169C892.026 378.135 892.026 378.118 892.026 378.083C892.026 378.031 892.026 377.979 892.026 377.945C892.026 377.91 892.026 377.876 892.026 377.841C892.026 377.789 892.026 377.737 892.013 377.703C892.013 377.633 892.013 377.564 892.013 377.495C892.013 377.478 892.013 377.443 892.013 377.409C892.013 377.374 892.013 377.322 892.013 377.27C892.013 377.253 892.013 377.218 892.013 377.201C892.013 377.149 892.013 377.097 892.013 377.028C891.999 376.855 891.999 376.665 891.999 376.475C891.999 376.458 891.987 376.458 891.987 376.44C891.987 376.388 891.987 376.336 891.987 376.267C891.987 376.267 891.987 376.25 891.987 376.233C891.987 376.164 891.973 376.077 891.973 375.991C891.973 375.939 891.973 375.887 891.973 375.852C891.973 375.818 891.973 375.801 891.973 375.766C891.959 375.697 891.959 375.645 891.959 375.576C891.959 375.558 891.959 375.558 891.959 375.558C891.879 373.777 891.719 371.996 891.48 370.25C919.079 375.714 939.92 400.079 939.92 429.355V759.798C939.92 793.069 912.959 820.028 879.705 820.028Z" fill="#FFDEA9"/>
<path d="M831.812 769.067C831.866 769.067 831.919 769.067 831.987 769.067C831.919 769.067 831.866 769.067 831.812 769.067ZM832.052 769.067C832.078 769.067 832.12 769.067 832.146 769.067C832.12 769.067 832.078 769.067 832.052 769.067ZM832.253 769.067C832.265 769.067 832.279 769.067 832.293 769.067C832.279 769.067 832.265 769.067 832.253 769.067ZM892.026 378.394C892.026 378.308 892.026 378.256 892.026 378.17C892.026 378.256 892.026 378.308 892.026 378.394ZM892.026 378.083C892.026 378.031 892.026 377.979 892.026 377.945C892.026 377.979 892.026 378.031 892.026 378.083ZM892.026 377.841C892.026 377.789 892.026 377.737 892.012 377.703C892.026 377.737 892.026 377.789 892.026 377.841ZM892.012 377.495C892.012 377.478 892.012 377.443 892.012 377.409C892.012 377.443 892.012 377.478 892.012 377.495ZM892.012 377.27C892.012 377.253 892.012 377.219 892.012 377.201C892.012 377.219 892.012 377.253 892.012 377.27ZM891.999 376.475C891.999 376.458 891.987 376.458 891.987 376.44C891.987 376.458 891.999 376.458 891.999 376.475ZM891.987 376.267C891.987 376.267 891.987 376.25 891.987 376.233C891.987 376.25 891.987 376.267 891.987 376.267ZM891.973 375.991C891.973 375.939 891.973 375.887 891.973 375.853C891.973 375.887 891.973 375.939 891.973 375.991ZM891.973 375.766C891.959 375.697 891.959 375.645 891.959 375.576C891.959 375.645 891.959 375.697 891.973 375.766ZM891.959 375.559C891.879 373.777 891.706 372.014 891.466 370.25H891.48C891.719 371.996 891.879 373.777 891.959 375.559Z" fill="#A0E2FF"/>
<path d="M892.008 709.573C892.008 709.558 892.008 709.558 892.021 709.543C892.008 709.558 892.008 709.558 892.008 709.573ZM892.021 709.36C892.021 709.345 892.021 709.33 892.021 709.299C892.021 709.33 892.021 709.345 892.021 709.36ZM892.021 709.132C892.021 709.117 892.021 709.102 892.021 709.071C892.021 709.102 892.021 709.117 892.021 709.132Z" fill="#CBEFFF"/>
<path d="M500.52 769.071C499.97 769.071 499.42 769.042 498.874 769.012C499.419 769.042 499.967 769.056 500.519 769.071C500.519 769.071 500.519 769.071 500.52 769.071Z" fill="#EBC8AB"/>
<path d="M181.835 378.392V708.846C181.835 714.693 181.003 720.347 179.427 725.613C174.149 744.053 160.345 758.776 142.463 765.257C135.978 767.758 128.939 769.062 121.619 769.062H24.3447V318.177H121.619C154.878 318.177 181.835 345.141 181.835 378.392Z" fill="#2CBEFF"/>
<path d="M166.363 810.538H111.07C88.056 810.538 69.3661 792.03 69.092 769.065H121.616C128.936 769.065 135.977 767.764 142.46 765.266C160.342 758.779 174.146 744.052 179.424 725.631C181.001 720.341 181.832 714.686 181.832 708.858V698.815V639.285V547.284V368.364C181.832 366.057 181.74 363.819 181.464 361.599C207.401 368.26 226.58 391.798 226.58 419.88V750.314C226.58 783.583 199.619 810.538 166.363 810.538Z" fill="#FFDEA9"/>
<path d="M121.615 769.071H69.0922C69.0906 768.903 69.0891 768.735 69.0891 768.567V759.034H116.44L142.461 765.267C135.976 767.773 128.936 769.071 121.615 769.071ZM179.424 725.624L177.072 722.324C180.138 715.114 181.832 707.154 181.832 698.813V708.85C181.832 714.686 180.999 720.354 179.424 725.624Z" fill="#A0E2FF"/>
<path d="M121.614 759.054H116.437L110.775 757.69L48.6301 670.493V542.183L177.071 722.324C167.912 743.904 146.531 759.054 121.614 759.054Z" fill="#8BDBFF"/>
<path d="M142.457 765.276L116.437 759.057H121.614C146.531 759.057 167.912 743.909 177.069 722.33L179.422 725.644C174.142 744.061 160.338 758.8 142.457 765.276Z" fill="#CBEFFF"/>
<path d="M181.833 639.274L48.6321 452.407V360.491L181.833 547.289V639.274Z" fill="#8BDBFF"/>
<path d="M3855.03 341.348C3839.7 341.348 3827.25 353.82 3827.25 369.129V1145.77C3827.25 1173.88 3850.09 1196.73 3878.18 1196.73H3950.76V341.348H3855.03ZM3973.91 1243.05H3878.18C3824.56 1243.05 3780.93 1199.41 3780.93 1145.77V369.129C3780.93 328.259 3814.16 295.029 3855.03 295.029H3973.91C3986.72 295.029 3997.08 305.394 3997.08 318.174V1219.89C3997.08 1232.68 3986.72 1243.05 3973.91 1243.05Z" fill="#6B184E"/>
<path d="M82.983 924.994H24.3108V1425.25H82.983C108.567 1425.25 129.303 1404.52 129.303 1378.93V971.314C129.303 945.73 108.567 924.994 82.983 924.994Z" fill="#EF3D30"/>
<path d="M3687.69 1506.43C3708.02 1487.24 3720.72 1460.06 3720.72 1429.97V1421.39H3740V1429.97C3740 1464.8 3718.31 1494.55 3687.69 1506.43ZM3740 1230.73H3720.72V934.252V426.579H3740V1230.73Z" fill="#FFDEA9"/>
<path d="M129.303 1029.22C129.303 1003.65 108.553 982.897 82.9828 982.897H48.6306V924.993H82.9828C108.553 924.993 129.303 945.744 129.303 971.314V1029.22Z" fill="#F8A8A2"/>
<path d="M3697.58 373.023V934.249H3246.67V373.023C3246.67 356.799 3253.73 342.177 3264.94 332.254C3274.57 323.459 3287.46 318.182 3301.54 318.182H3642.73C3673 318.182 3697.58 342.728 3697.58 373.023Z" fill="#2CBEFF"/>
<path d="M47.4742 1402.1H82.9847C95.756 1402.1 106.146 1391.69 106.146 1378.93V971.308C106.146 958.525 95.756 948.142 82.9847 948.142H47.4742V1402.1ZM82.9847 1448.42H24.3141C11.5232 1448.42 1.15259 1438.03 1.15259 1425.25V924.99C1.15259 912.194 11.5232 901.824 24.3141 901.824H82.9847C121.299 901.824 152.468 932.988 152.468 971.308V1378.93C152.468 1417.24 121.299 1448.42 82.9847 1448.42Z" fill="#6B184E"/>
<path d="M3599.06 911.095H3420.81L3306.67 713.441V426.363C3306.67 420.413 3307.62 414.668 3309.39 409.282L3599.06 911.095Z" fill="#8BDBFF"/>
<path d="M3674.41 854.388L3395.68 371.533H3510.02L3674.41 656.242V854.388Z" fill="#8BDBFF"/>
<path d="M3301.53 341.349C3284.03 341.349 3269.83 355.575 3269.83 373.022V1227.74C3269.83 1243.04 3277.93 1257.36 3291.5 1266.04C3359.17 1309.35 3406.82 1376.06 3425.66 1453.9C3430.57 1474.47 3448.18 1488.8 3468.45 1488.8H3615.57C3648.01 1488.8 3674.4 1462.42 3674.4 1429.98V373.022C3674.4 355.575 3660.2 341.349 3642.73 341.349H3301.53ZM3615.57 1535.12H3468.45C3426.66 1535.12 3390.53 1506.17 3380.63 1464.74C3364.61 1398.63 3324.1 1341.9 3266.53 1305.06C3239.58 1287.82 3223.51 1258.91 3223.51 1227.74V373.022C3223.51 330.026 3258.51 295.027 3301.53 295.027H3642.73C3685.72 295.027 3720.72 330.026 3720.72 373.022V1429.98C3720.72 1487.95 3673.55 1535.12 3615.57 1535.12Z" fill="#6B184E"/>
<path d="M2724.82 341.355C2704.37 341.355 2687.73 357.97 2687.73 378.396V708.825C2687.73 729.251 2704.37 745.889 2724.82 745.889H3055.22C3075.65 745.889 3092.26 729.251 3092.26 708.825V378.396C3092.26 357.97 3075.65 341.355 3055.22 341.355H2724.82ZM3055.22 792.196H2724.82C2678.83 792.196 2641.42 754.813 2641.42 708.825V378.396C2641.42 332.431 2678.83 295.024 2724.82 295.024H3055.22C3101.19 295.024 3138.59 332.431 3138.59 378.396V708.825C3138.59 754.813 3101.19 792.196 3055.22 792.196Z" fill="#6B184E"/>
<path d="M2168.96 341.346C2148.52 341.346 2131.9 357.963 2131.9 378.385V708.811C2131.9 729.252 2148.52 745.87 2168.96 745.87H2499.39C2519.81 745.87 2536.45 729.252 2536.45 708.811V378.385C2536.45 357.963 2519.81 341.346 2499.39 341.346H2168.96ZM2499.39 792.188H2168.96C2122.99 792.188 2085.58 754.799 2085.58 708.811V378.385C2085.58 332.416 2122.99 295.027 2168.96 295.027H2499.39C2545.36 295.027 2582.76 332.416 2582.76 378.385V708.811C2582.76 754.799 2545.36 792.188 2499.39 792.188Z" fill="#6B184E"/>
<path d="M1613.1 341.351C1592.67 341.351 1576.05 357.969 1576.05 378.404V708.824C1576.05 729.258 1592.67 745.876 1613.1 745.876H1943.52C1963.96 745.876 1980.58 729.258 1980.58 708.824V378.404C1980.58 357.969 1963.96 341.351 1943.52 341.351H1613.1ZM1943.52 792.196H1613.1C1567.12 792.196 1529.73 754.806 1529.73 708.824V378.404C1529.73 332.439 1567.12 295.031 1613.1 295.031H1943.52C1989.51 295.031 2026.9 332.439 2026.9 378.404V708.824C2026.9 754.806 1989.51 792.196 1943.52 792.196Z" fill="#6B184E"/>
<path d="M1057.26 341.351C1036.82 341.351 1020.21 357.969 1020.21 378.404V708.824C1020.21 729.258 1036.82 745.876 1057.26 745.876H1387.68C1408.12 745.876 1424.73 729.258 1424.73 708.824V378.404C1424.73 357.969 1408.12 341.351 1387.68 341.351H1057.26ZM1387.68 792.196H1057.26C1011.29 792.196 973.875 754.806 973.875 708.824V378.404C973.875 332.439 1011.29 295.031 1057.26 295.031H1387.68C1433.66 295.031 1471.05 332.439 1471.05 378.404V708.824C1471.05 754.806 1433.66 792.196 1387.68 792.196Z" fill="#6B184E"/>
<path d="M501.415 341.351C480.982 341.351 464.357 357.969 464.357 378.404V708.824C464.357 729.258 480.982 745.876 501.415 745.876H831.835C852.262 745.876 868.889 729.258 868.889 708.824V378.404C868.889 357.969 852.262 341.351 831.835 341.351H501.415ZM831.835 792.196H501.415C455.437 792.196 418.035 754.806 418.035 708.824V378.404C418.035 332.439 455.437 295.031 501.415 295.031H831.835C877.809 295.031 915.209 332.439 915.209 378.404V708.824C915.209 754.806 877.809 792.196 831.835 792.196Z" fill="#6B184E"/>
<path d="M121.616 792.231H24.3402C11.552 792.231 1.18188 781.863 1.18188 769.062C1.18188 756.28 11.552 745.911 24.3402 745.911H121.616C142.051 745.911 158.672 729.294 158.672 708.859V378.403C158.672 357.969 142.051 341.351 121.616 341.351H24.3402C11.552 341.351 1.18188 330.983 1.18188 318.182C1.18188 305.399 11.552 295.031 24.3402 295.031H121.616C167.59 295.031 204.992 332.438 204.992 378.403V708.859C204.992 754.824 167.59 792.231 121.616 792.231Z" fill="#6B184E"/>
<path d="M3697.57 957.417H3246.66C3233.88 957.417 3223.51 947.044 3223.51 934.256C3223.51 921.458 3233.88 911.098 3246.66 911.098H3697.57C3710.35 911.098 3720.72 921.458 3720.72 934.256C3720.72 947.044 3710.35 957.417 3697.57 957.417Z" fill="#6B184E"/>
<path d="M3352.44 1131.11H3329.28C3319.05 1131.11 3310.76 1122.81 3310.76 1112.59V1024.58C3310.76 1014.35 3319.05 1006.04 3329.28 1006.04H3352.44C3362.67 1006.04 3370.97 1014.35 3370.97 1024.58V1112.59C3370.97 1122.81 3362.67 1131.11 3352.44 1131.11Z" fill="#6B184E"/>
<path d="M3119.14 1291.31C3121.92 1291.31 3124.7 1291.36 3127.48 1291.46C3250.4 1295.8 3350.37 1401.67 3350.37 1527.47V1594.59C3350.37 1603.06 3357.28 1609.93 3365.8 1609.93H3934.2C3942.71 1609.93 3949.62 1603.06 3949.62 1594.59V318.17C3949.62 249.867 3894.02 194.292 3825.66 194.292H178.696C106.979 194.292 48.63 252.648 48.63 324.351V1482.16C48.63 1498.99 60.6891 1513.24 77.3028 1516.07L577.316 1600.42C577.597 1600.45 577.881 1600.51 578.168 1600.58C584.444 1601.84 588.946 1599.14 591.078 1597.4C593.199 1595.67 596.756 1591.83 596.756 1585.48V1522.54C596.756 1459.24 621.858 1400.16 667.434 1356.16C712.993 1312.19 772.968 1289.18 836.355 1291.46C959.169 1295.87 1059.08 1401.75 1059.08 1527.47V1594.59C1059.08 1603.06 1066 1609.93 1074.5 1609.93H1115.81C1116.13 1609.93 1116.46 1609.93 1116.78 1609.93H1124.38C1131.58 1607.14 1139.74 1595.64 1139.74 1585.48V1522.54C1139.74 1514.56 1140.13 1506.58 1140.9 1498.8C1153.31 1378.23 1257.94 1287.14 1379.39 1291.46C1491.37 1295.46 1586.33 1384.35 1600.27 1498.24C1601.49 1507.7 1602.13 1517.57 1602.13 1527.47V1594.59C1602.13 1603.06 1609.01 1609.93 1617.47 1609.93H2872.56C2881.02 1609.93 2887.9 1603.06 2887.9 1594.59V1522.54C2887.9 1459.27 2912.99 1400.21 2958.51 1356.24C3002.06 1314.19 3058.81 1291.31 3119.14 1291.31ZM1122.12 1659.16C1119.53 1659.16 1116.9 1658.96 1114.26 1658.58H1074.5C1039.17 1658.58 1010.43 1629.87 1010.43 1594.59V1527.47C1010.43 1427.61 931.555 1343.55 834.607 1340.07C784.662 1338.24 737.187 1356.44 701.212 1391.16C665.214 1425.89 645.389 1472.56 645.389 1522.54V1585.48C645.389 1604.79 636.797 1622.88 621.813 1635.1C606.933 1647.23 587.645 1652.02 568.848 1648.31L69.1827 1564.02C29.0802 1557.2 0 1522.79 0 1482.16V324.351C0 225.816 80.163 145.656 178.696 145.656H3825.66C3920.85 145.656 3998.26 223.034 3998.26 318.17V1594.59C3998.26 1629.87 3969.51 1658.58 3934.2 1658.58H3365.8C3330.48 1658.58 3301.74 1629.87 3301.74 1594.59V1527.47C3301.74 1427.56 3222.81 1343.5 3125.77 1340.07C3075.67 1338.24 3028.27 1356.5 2992.31 1391.23C2956.34 1425.95 2936.53 1472.58 2936.53 1522.54V1594.59C2936.53 1629.87 2907.85 1658.58 2872.56 1658.58H1617.47C1582.19 1658.58 1553.49 1629.87 1553.49 1594.59V1527.47C1553.49 1519.66 1552.99 1511.87 1552.02 1504.32C1540.93 1413.76 1465.98 1343.21 1377.67 1340.07C1281.71 1336.67 1199.07 1408.56 1189.29 1503.7C1188.69 1509.79 1188.37 1516.16 1188.37 1522.54V1585.48C1188.37 1618.89 1162.95 1651.94 1132.73 1658.03C1132.45 1658.08 1132.17 1658.13 1131.89 1658.19C1128.74 1658.83 1125.46 1659.16 1122.12 1659.16Z" fill="#6B184E"/>
<path d="M4220.17 387.444V557.737C4220.17 599.429 4186.33 633.271 4144.64 633.271C4124.99 633.271 4109 617.284 4109 597.617V403.431H3697.56V353.47C3697.56 333.951 3713.32 318.176 3732.85 318.176H4150.92C4189.18 318.176 4220.17 349.163 4220.17 387.444Z" fill="#FFB640"/>
<path d="M3700.89 400.091H4112.36V597.611C4112.36 615.437 4126.83 629.931 4144.67 629.931C4184.46 629.931 4216.86 597.543 4216.86 557.732V387.436C4216.86 351.077 4187.29 321.504 4150.92 321.504H3732.85C3715.22 321.504 3700.89 335.836 3700.89 353.465V400.091ZM4144.67 636.597C4123.18 636.597 4105.7 619.104 4105.7 597.611V406.756H3694.23V353.465C3694.23 332.169 3711.56 314.838 3732.85 314.838H4150.92C4190.95 314.838 4223.52 347.41 4223.52 387.436V557.732C4223.52 601.225 4188.15 636.597 4144.67 636.597Z" fill="#6B184E"/>
<path d="M4193.53 369.853C4181.78 360.666 4166.99 355.199 4150.91 355.199H3732.84C3728.59 355.199 3724.49 355.958 3720.71 357.332V353.465C3720.71 346.774 3726.16 341.334 3732.84 341.334H4150.91C4170.12 341.334 4186.62 353.134 4193.53 369.853Z" fill="#FFDEA9"/>
<path d="M4144.67 610.103C4137.78 610.103 4132.18 604.5 4132.18 597.608V539.914C4136.08 541.368 4140.27 542.168 4144.67 542.168C4164.99 542.168 4183.46 534.13 4197.03 521.049V557.729C4197.03 586.608 4173.55 610.103 4144.67 610.103Z" fill="#D28644"/>
<path d="M3720.72 380.265H4109.02C4121.8 380.265 4132.16 390.625 4132.16 403.424V597.612C4132.16 604.506 4137.76 610.106 4144.65 610.106C4173.52 610.106 4197.02 586.612 4197.02 557.731V387.44C4197.02 362.013 4176.33 341.332 4150.9 341.332H3732.85C3726.16 341.332 3720.72 346.772 3720.72 353.465V380.265ZM4144.65 656.425C4112.24 656.425 4085.84 630.039 4085.84 597.612V426.587H3697.57C3684.78 426.587 3674.39 416.212 3674.39 403.424V353.465C3674.39 321.239 3700.62 295.013 3732.85 295.013H4150.9C4201.87 295.013 4243.34 336.48 4243.34 387.44V557.731C4243.34 612.146 4199.09 656.425 4144.65 656.425Z" fill="#6B184E"/>
<path d="M1339.42 24.3199H631.641C588.594 24.3199 553.696 59.2083 553.696 102.27V169.95H1417.37V102.27C1417.37 59.2083 1382.46 24.3199 1339.42 24.3199Z" fill="#FFA829"/>
<path d="M553.696 145.651H553.677V102.262C553.677 75.9377 566.732 52.6869 586.705 38.5779C566.736 52.6869 553.696 75.957 553.696 102.262V145.651Z" fill="#B7F6F4"/>
<path d="M553.675 150.604V145.657H553.694V148.887C553.681 149.466 553.675 150.026 553.675 150.604Z" fill="#BC97AF"/>
<path d="M1417.33 150.614C1417.33 107.533 1382.47 72.6837 1339.41 72.6837H631.607C589.182 72.6837 554.609 106.621 553.694 148.886V145.664V102.272C553.694 75.9454 566.733 52.6866 586.703 38.5721C599.4 29.6025 614.895 24.3412 631.607 24.3412H1339.41C1382.47 24.3412 1417.33 59.21 1417.33 102.272V150.614Z" fill="#FFD89E"/>
<path d="M578.011 145.634H1393.05V102.261C1393.05 72.6999 1368.98 48.636 1339.42 48.636H631.64C602.069 48.636 578.011 72.6999 578.011 102.261V145.634ZM1417.37 194.271H553.695C540.262 194.271 529.376 183.393 529.376 169.952V102.261C529.376 45.8776 575.25 -1.52588e-05 631.64 -1.52588e-05H1339.42C1395.81 -1.52588e-05 1441.67 45.8776 1441.67 102.261V169.952C1441.67 183.393 1430.79 194.271 1417.37 194.271Z" fill="#6B184E"/>
<path d="M3243.58 24.3282H2535.81C2492.76 24.3282 2457.85 59.2162 2457.85 102.269V169.962H3321.52V102.269C3321.52 59.2162 3286.64 24.3282 3243.58 24.3282Z" fill="#FFA829"/>
<path d="M2457.86 145.644V102.256C2457.86 76.0299 2470.79 52.8575 2490.64 38.7299C2470.79 52.8575 2457.86 76.0492 2457.86 102.256V145.644Z" fill="#B7F6F4"/>
<path d="M3321.52 150.591C3321.52 107.538 3286.66 72.6496 3243.58 72.6496H2535.77C2493.34 72.6496 2458.76 106.628 2457.87 148.939V145.658V102.27C2457.87 76.0499 2470.8 52.871 2490.65 38.7194C2503.37 29.6682 2518.96 24.3285 2535.77 24.3285H3243.58C3286.66 24.3285 3321.52 59.1926 3321.52 102.27V150.591Z" fill="#FFD89E"/>
<path d="M2482.18 145.634H3297.2V102.264C3297.2 72.7008 3273.15 48.6547 3243.59 48.6547H2535.79C2506.23 48.6547 2482.18 72.7008 2482.18 102.264V145.634ZM3321.53 194.28H2457.85C2444.43 194.28 2433.54 183.39 2433.54 169.969V102.264C2433.54 45.8838 2479.41 0.00827026 2535.79 0.00827026H3243.59C3299.97 0.00827026 3345.84 45.8838 3345.84 102.264V169.969C3345.84 183.39 3334.95 194.28 3321.53 194.28Z" fill="#6B184E"/>
<path d="M3306.66 911.095H3269.82V649.655L3306.66 713.442V911.095ZM3309.4 409.289L3276.95 353.075C3282.74 345.921 3291.6 341.352 3301.52 341.352H3378.25L3395.67 371.535H3361.52C3347.44 371.535 3334.57 376.809 3324.94 385.608C3317.84 391.874 3312.43 400.02 3309.4 409.289ZM3674.36 371.535H3510L3492.59 341.352H3642.72C3659.69 341.352 3673.58 354.746 3674.36 371.535Z" fill="#3F8CCA"/>
<path d="M3306.67 713.448L3269.84 649.642V373.029C3269.84 365.462 3272.49 358.516 3276.93 353.073L3309.4 409.288C3307.63 414.659 3306.67 420.388 3306.67 426.356V713.448Z" fill="#81A0CA"/>
<path d="M3510.02 371.519H3395.68L3378.26 341.347H3492.6L3510.02 371.519Z" fill="#81A0CA"/>
<path d="M3269.84 911.091H3253.34V373.029C3253.34 356.818 3260.4 342.176 3271.61 332.267C3281.24 323.456 3294.13 318.174 3308.19 318.174H3649.38C3660.88 318.174 3671.55 321.704 3680.36 327.77C3676.55 335.535 3674.4 344.242 3674.4 353.472V371.513H3674.37C3673.59 354.753 3659.71 341.34 3642.74 341.34H3492.58H3378.27H3301.53C3291.62 341.34 3282.75 345.915 3276.95 353.053C3272.5 358.518 3269.84 365.473 3269.84 373.029V649.649V911.091Z" fill="#6B184E"/>
<path d="M3306.68 934.251H3253.34V911.091H3269.85H3306.68V934.251Z" fill="#6B184E"/>
<path d="M3704.16 371.583C3703.69 371.583 3703.21 371.531 3702.74 371.531H3674.4V353.468C3674.4 344.239 3676.55 335.536 3680.37 327.78C3694.38 337.403 3703.69 353.389 3704.16 371.583Z" fill="#6B184E"/>
</svg>
