<svg width="451" height="451" viewBox="0 0 451 451" fill="none" xmlns="http://www.w3.org/2000/svg">
<path d="M424.534 200.28C438.388 310.319 360.38 410.801 250.342 424.64C140.233 438.494 39.8239 360.481 25.9703 250.427C22.6569 224.133 24.6017 198.414 30.9403 174.308V174.253C51.1807 97.2942 116.368 36.614 200.186 26.0665C296.85 13.8935 386.142 72.5736 415.795 161.681C419.9 174.001 422.853 186.906 424.534 200.28Z" fill="#7C6B6A"/>
<path d="M225.601 48.7669C218.182 48.7669 210.689 49.2332 203.197 50.1806C106.622 62.3275 37.9366 150.794 50.0931 247.382C62.2496 343.969 150.704 412.676 247.28 400.501C294.093 394.608 335.783 370.861 364.688 333.608C393.617 296.368 406.305 250.089 400.408 203.302C394.511 156.501 370.754 114.808 333.511 85.8865C302.238 61.6073 264.584 48.7669 225.601 48.7669ZM225.093 450.528C113.341 450.528 16.137 367.142 1.82951 253.448C-13.6622 130.261 73.9467 17.4209 197.131 1.9147C320.388 -13.5673 433.156 74.0345 448.672 197.221C464.163 320.422 376.554 433.248 253.37 448.754C243.872 449.956 234.422 450.528 225.093 450.528Z" fill="#6B184E"/>
<path d="M329.146 212.262C336.371 269.649 295.707 322.022 238.322 329.25C180.938 336.464 128.558 295.797 121.332 238.41C114.106 181.024 154.795 128.648 212.179 121.437C269.563 114.209 321.943 154.876 329.146 212.262Z" fill="#D3DAE2"/>
<path d="M225.462 123.931C221.179 123.931 216.896 124.198 212.589 124.743C185.719 128.116 161.776 141.771 145.158 163.156C128.54 184.545 121.261 211.131 124.654 237.998C131.629 293.477 182.49 332.903 237.914 325.945C293.362 318.958 332.824 268.145 325.849 212.678C322.455 185.811 308.81 161.865 287.417 145.251C269.465 131.304 247.838 123.931 225.462 123.931ZM225.181 333.411C171.536 333.411 124.888 293.383 118.03 238.836C114.426 210.197 122.197 181.865 139.891 159.063C157.609 136.264 183.121 121.731 211.77 118.131C240.395 114.531 268.716 122.29 291.513 139.983C314.31 157.691 328.845 183.21 332.449 211.85C339.892 270.97 297.856 325.116 238.733 332.557C234.192 333.13 229.652 333.411 225.181 333.411Z" fill="#6B184E"/>
<path d="M140.146 247.515C139.195 243.888 138.476 240.141 138.013 236.313C135.068 213.007 141.375 189.954 155.797 171.407C170.197 152.847 190.973 141.019 214.276 138.086C218.009 137.62 221.719 137.381 225.429 137.381C244.837 137.381 263.596 143.781 279.178 155.873C289.983 164.274 298.516 174.82 304.336 186.78C286.83 173.888 265.289 166.38 242.426 166.38C238.043 166.38 233.614 166.646 229.139 167.221C184.341 172.874 149.745 206.007 140.146 247.515Z" fill="#B49FB5"/>
<path d="M254.162 221.706C256.153 237.666 244.845 252.239 228.866 254.254C212.911 256.266 198.329 244.946 196.337 228.986C194.323 213.014 205.631 198.439 221.61 196.427C237.565 194.426 252.147 205.732 254.162 221.706Z" fill="#6B184E"/>
<path d="M237.64 165.488C238.506 172.341 233.653 178.596 226.795 179.45C219.96 180.316 213.695 175.463 212.852 168.609C211.986 161.768 216.839 155.516 223.674 154.648C230.532 153.796 236.775 158.649 237.64 165.488Z" fill="#6B184E"/>
<path d="M237.64 282.063C238.506 288.903 233.653 295.157 226.795 296.023C219.96 296.877 213.695 292.022 212.852 285.182C211.986 278.329 216.839 272.089 223.674 271.223C230.532 270.357 236.775 275.21 237.64 282.063Z" fill="#6B184E"/>
<path d="M179.624 184.675C185.986 187.355 188.976 194.688 186.301 201.047C183.626 207.409 176.275 210.395 169.913 207.715C163.574 205.035 160.584 197.703 163.259 191.343C165.934 184.981 173.263 181.996 179.624 184.675Z" fill="#6B184E"/>
<path d="M280.55 242.964C286.926 245.643 289.906 252.977 287.226 259.336C284.547 265.695 277.224 268.682 270.849 266.002C264.497 263.323 261.517 256.003 264.196 249.644C266.876 243.282 274.198 240.296 280.55 242.964Z" fill="#6B184E"/>
<path d="M167.219 244.518C172.726 240.357 180.549 241.438 184.73 246.932C188.889 252.424 187.832 260.264 182.325 264.437C176.817 268.611 168.972 267.532 164.814 262.038C160.632 256.531 161.711 248.692 167.219 244.518Z" fill="#6B184E"/>
<path d="M268.151 186.242C273.648 182.068 281.502 183.147 285.66 188.653C289.84 194.149 288.755 201.988 283.257 206.162C277.76 210.334 269.929 209.255 265.749 203.748C261.568 198.256 262.653 190.416 268.151 186.242Z" fill="#6B184E"/>
<path d="M225.156 363.55C182.361 363.55 144.248 337.388 128.36 298.669C150.841 328.256 186.368 346.87 225.156 346.87C230.188 346.87 235.29 346.548 240.392 345.91C272.611 341.856 301.312 325.495 321.207 299.869C321.51 299.482 321.79 299.096 322.092 298.723C308.161 332.417 277.06 357.856 238.342 362.723C233.916 363.282 229.489 363.55 225.156 363.55Z" fill="#C4BCBC"/>
<path d="M225.426 137.386C221.718 137.386 217.987 137.626 214.256 138.093C190.953 141.026 170.185 152.853 155.777 171.413C141.368 189.959 135.056 213.012 137.989 236.319C144.043 284.426 188.137 318.666 236.22 312.586C284.327 306.532 318.541 262.466 312.487 214.359C309.554 191.052 297.726 170.291 279.164 155.878C263.582 143.786 244.832 137.386 225.426 137.386ZM225.144 346.866C164.835 346.866 112.387 301.867 104.666 240.518C100.63 208.305 109.359 176.451 129.259 150.826C149.159 125.186 177.859 108.825 210.078 104.787C242.251 100.72 274.119 109.452 299.768 129.358C325.393 149.265 341.75 177.958 345.81 210.173C349.846 242.372 341.116 274.225 321.217 299.865C301.317 325.493 272.617 341.851 240.397 345.907C235.281 346.545 230.189 346.866 225.144 346.866Z" fill="#6B184E"/>
<path d="M110.552 184.962C98.0782 172.827 82.0543 166.334 64.7524 166.334C62.7642 166.334 60.776 166.427 58.7642 166.602C80.3976 105.669 134.789 58.7876 203.192 50.1887C210.671 49.2419 218.151 48.7733 225.583 48.7733C264.565 48.7733 302.223 61.6136 333.513 85.8956C354.484 102.187 371.17 122.521 382.815 145.548C379.833 145.054 376.898 144.815 373.987 144.815C357.892 144.815 342.767 152.029 330.294 164.162C322.554 150.881 312.258 139.082 299.761 129.361C278.222 112.642 252.305 103.815 225.488 103.815C220.375 103.815 215.216 104.135 210.08 104.788C177.866 108.828 149.156 125.188 129.25 150.829C121.132 161.295 114.859 172.815 110.552 184.962Z" fill="#775262"/>
<path d="M30.9573 174.31V174.255C51.1762 97.294 116.368 36.6158 200.18 26.0695C208.678 24.9881 217.153 24.4677 225.508 24.4677C312.112 24.4677 388.763 80.429 415.785 161.682C404.852 152.496 393.68 147.335 382.819 145.547C371.17 122.521 354.484 102.188 333.501 85.8955C302.229 61.6161 264.561 48.7758 225.579 48.7758C218.155 48.7758 210.684 49.2413 203.188 50.189C134.797 58.7874 80.3945 105.668 58.7672 166.602C49.6723 167.361 40.3148 169.896 30.9573 174.31Z" fill="#6B184E"/>
<path d="M123.292 201.396C119.65 195.115 115.377 189.608 110.568 184.955C114.863 172.807 121.144 161.288 129.269 150.822C149.183 125.182 177.876 108.821 210.072 104.782C215.231 104.128 220.391 103.808 225.504 103.808C252.329 103.808 278.244 112.636 299.77 129.354C312.284 139.076 322.58 150.875 330.308 164.155C326.479 167.888 322.883 172.088 319.638 176.688C314.712 137.621 275.139 120.088 232.765 120.088C177.223 120.088 116.848 150.196 123.292 201.396Z" fill="#6B184E"/>
</svg>
